<?xml version="1.0" encoding="UTF-8" standalone="no"?><svg xmlns="http://www.w3.org/2000/svg" xmlns:xlink="http://www.w3.org/1999/xlink" fill="#717273" height="71.5" preserveAspectRatio="xMidYMid meet" version="1" viewBox="0.0 -0.0 147.4 71.5" width="147.4" zoomAndPan="magnify"><defs><clipPath id="a"><path d="M 131 62 L 137 62 L 137 71.511719 L 131 71.511719 Z M 131 62"/></clipPath><clipPath id="b"><path d="M 137 62 L 143 62 L 143 71.511719 L 137 71.511719 Z M 137 62"/></clipPath><clipPath id="c"><path d="M 21 3 L 147.390625 3 L 147.390625 28 L 21 28 Z M 21 3"/></clipPath></defs><g><g id="change1_1"><path d="M 17.039062 8.179688 L 17.039062 4.492188 C 17.039062 4.25 16.84375 4.054688 16.601562 4.054688 L 15.164062 4.054688 C 15.132812 3.707031 15.175781 3.382812 15.257812 3.078125 C 15.382812 2.617188 15.617188 2.191406 15.921875 1.824219 L 16.410156 1.234375 C 16.542969 1.078125 16.539062 0.851562 16.40625 0.699219 L 15.917969 0.144531 C 15.804688 0.0117188 15.621094 -0.03125 15.460938 0.0273438 L 15.445312 0.0351562 C 12.542969 1.074219 12.476562 4.054688 12.476562 4.054688 L 12.476562 8.179688 C 12.476562 8.421875 12.671875 8.617188 12.914062 8.617188 L 16.601562 8.617188 C 16.84375 8.617188 17.039062 8.421875 17.039062 8.179688" fill="#717273"/></g><g id="change1_2"><path d="M 11.09375 8.179688 L 11.09375 4.492188 C 11.09375 4.25 10.898438 4.054688 10.65625 4.054688 L 9.21875 4.054688 C 9.1875 3.707031 9.230469 3.382812 9.3125 3.078125 C 9.4375 2.617188 9.671875 2.191406 9.976562 1.824219 L 10.46875 1.234375 C 10.597656 1.078125 10.59375 0.851562 10.460938 0.699219 L 9.976562 0.144531 C 9.863281 0.0117188 9.679688 -0.03125 9.519531 0.0273438 L 9.5 0.0351562 C 6.601562 1.074219 6.53125 4.054688 6.53125 4.054688 L 6.53125 8.179688 C 6.53125 8.421875 6.726562 8.617188 6.96875 8.617188 L 10.65625 8.617188 C 10.898438 8.617188 11.09375 8.421875 11.09375 8.179688" fill="#717273"/></g><g clip-path="url(#a)" id="change1_4"><path d="M 131.769531 63.332031 L 131.769531 67.019531 C 131.769531 67.261719 131.964844 67.457031 132.207031 67.457031 L 133.644531 67.457031 C 133.675781 67.804688 133.632812 68.128906 133.550781 68.433594 C 133.429688 68.894531 133.191406 69.320312 132.886719 69.6875 L 132.394531 70.277344 C 132.265625 70.433594 132.269531 70.660156 132.402344 70.8125 L 132.890625 71.367188 C 133.003906 71.5 133.1875 71.542969 133.347656 71.484375 L 133.363281 71.476562 C 136.265625 70.4375 136.332031 67.457031 136.332031 67.457031 L 136.332031 63.332031 C 136.332031 63.089844 136.136719 62.894531 135.894531 62.894531 L 132.207031 62.894531 C 131.964844 62.894531 131.769531 63.089844 131.769531 63.332031" fill="#717273"/></g><g clip-path="url(#b)" id="change1_3"><path d="M 137.714844 63.332031 L 137.714844 67.019531 C 137.714844 67.261719 137.910156 67.457031 138.152344 67.457031 L 139.589844 67.457031 C 139.617188 67.804688 139.578125 68.128906 139.496094 68.433594 C 139.371094 68.894531 139.136719 69.320312 138.832031 69.6875 L 138.339844 70.277344 C 138.210938 70.433594 138.214844 70.660156 138.347656 70.8125 L 138.832031 71.367188 C 138.945312 71.5 139.128906 71.542969 139.289062 71.484375 L 139.308594 71.476562 C 142.207031 70.4375 142.277344 67.457031 142.277344 67.457031 L 142.277344 63.332031 C 142.277344 63.089844 142.082031 62.894531 141.839844 62.894531 L 138.152344 62.894531 C 137.910156 62.894531 137.714844 63.089844 137.714844 63.332031" fill="#717273"/></g><g clip-path="url(#c)" id="change2_2"><path d="M 147.386719 27.214844 L 145.546875 27.214844 L 145.546875 4.960938 L 21.929688 4.960938 L 21.929688 3.125 L 147.386719 3.125 L 147.386719 27.214844"/></g><g id="change2_1"><path d="M 125.457031 68.390625 L 0 68.390625 L 0 44.300781 L 1.839844 44.300781 L 1.839844 66.550781 L 125.457031 66.550781 L 125.457031 68.390625"/></g></g></svg>