<svg width="52" height="52" viewBox="0 0 52 52" fill="none" xmlns="http://www.w3.org/2000/svg">
<g clip-path="url(#clip0_701_38947)">
<path d="M51.2222 32.2901C51.2224 32.2901 51.2226 32.2903 51.2225 32.2905C47.7493 46.2189 33.6396 54.6947 19.7078 51.2221C5.78246 47.7495 -2.6953 33.6413 0.778523 19.7135C4.24991 5.78326 18.359 -2.69432 32.2867 0.778286C46.2177 4.25086 54.6946 18.3605 51.2218 32.2897C51.2218 32.2899 51.222 32.2901 51.2222 32.2901Z" fill="url(#paint0_linear_701_38947)"/>
<path fill-rule="evenodd" clip-rule="evenodd" d="M36.7415 22.2992C37.2069 19.1891 34.8348 17.5171 31.5913 16.4019L32.6435 12.1888L30.0738 11.5496L29.0495 15.6517C28.3749 15.4837 27.6812 15.3252 26.9919 15.1682L28.0236 11.0391L25.4562 10.4L24.4033 14.6116C23.8443 14.4845 23.2956 14.3589 22.7629 14.2267L22.7658 14.2135L19.2231 13.3304L18.5397 16.0695C18.5397 16.0695 20.4457 16.5055 20.4054 16.5326C21.4459 16.7919 21.6346 17.4792 21.6025 18.0241L20.404 22.8236C20.4757 22.8419 20.5687 22.8682 20.671 22.9091L20.4004 22.8419L18.7197 29.5653C18.5924 29.8808 18.2697 30.3542 17.5424 30.1745C17.568 30.2117 15.6752 29.7092 15.6752 29.7092L14.3999 32.6454L17.7436 33.4774C18.1211 33.5718 18.494 33.6689 18.8628 33.7651C19.1016 33.8272 19.3387 33.889 19.5742 33.9493L18.5111 38.2113L21.0772 38.8503L22.1307 34.6344C22.8309 34.8243 23.5114 34.9996 24.1772 35.1646L23.128 39.3609L25.6969 40L26.76 35.7468C31.1405 36.5744 34.4353 36.2406 35.8204 32.2861C36.9376 29.1015 35.7655 27.2645 33.4608 26.0659C35.1392 25.678 36.4035 24.5758 36.7408 22.2992H36.7415ZM30.8713 30.5162C30.142 33.4393 25.5581 32.2298 23.4627 31.6769C23.2751 31.6274 23.1074 31.5832 22.9642 31.5476L24.3748 25.9016C24.5498 25.9453 24.7637 25.9931 25.0059 26.0474C27.1737 26.5331 31.6163 27.5284 30.872 30.5162H30.8713ZM25.4417 23.4292C27.1903 23.8949 31.0014 24.9101 31.6653 22.2545C32.3441 19.538 28.6381 18.7191 26.8282 18.3192C26.6247 18.2743 26.4452 18.2346 26.2985 18.1982L25.0197 23.3189C25.1406 23.349 25.2827 23.3869 25.4417 23.4292Z" fill="white"/>
</g>
<defs>
<linearGradient id="paint0_linear_701_38947" x1="28.9338" y1="72.968" x2="-5.38699" y2="-30.4827" gradientUnits="userSpaceOnUse">
<stop stop-color="#FFC300"/>
<stop offset="1" stop-color="#FF541E"/>
</linearGradient>
<clipPath id="clip0_701_38947">
<rect width="52" height="52" fill="white"/>
</clipPath>
</defs>
</svg>
